<?xml version="1.0" standalone="no"?>
<!DOCTYPE svg PUBLIC "-//W3C//DTD SVG 20010904//EN"
 "http://www.w3.org/TR/2001/REC-SVG-20010904/DTD/svg10.dtd">
<svg version="1.0" xmlns="http://www.w3.org/2000/svg"
 width="128.000000pt" height="128.000000pt" viewBox="0 0 128.000000 128.000000"
 preserveAspectRatio="xMidYMid meet">

<g transform="translate(0.000000,128.000000) scale(0.100000,-0.100000)"
fill="#000000" stroke="none">
<path d="M502 1245 c-223 -49 -420 -247 -467 -471 -77 -363 166 -707 531 -753
196 -24 372 37 515 180 123 122 182 266 181 444 -1 234 -132 443 -345 552
-116 58 -280 77 -415 48z m315 -70 c277 -88 448 -391 377 -669 -26 -103 -73
-185 -149 -262 -82 -83 -152 -125 -255 -153 -338 -94 -681 148 -715 505 -18
190 91 407 259 515 151 98 309 119 483 64z"/>
<path d="M340 1062 c0 -2 60 -108 134 -235 74 -128 143 -248 154 -267 19 -34
203 -353 206 -357 1 -2 27 43 222 381 49 84 79 145 74 151 -5 6 -29 45 -53 88
l-44 77 -96 -167 c-52 -93 -99 -167 -102 -166 -4 1 -71 113 -150 248 l-142
247 -102 2 c-55 0 -101 -1 -101 -2z"/>
</g>
</svg>
